<?xml version="1.0" encoding="UTF-8" standalone="no"?>
<!-- Created with Inkscape (http://www.inkscape.org/) -->

<svg
   xmlns:dc="http://purl.org/dc/elements/1.1/"
   xmlns:cc="http://creativecommons.org/ns#"
   xmlns:rdf="http://www.w3.org/1999/02/22-rdf-syntax-ns#"
   xmlns:svg="http://www.w3.org/2000/svg"
   xmlns="http://www.w3.org/2000/svg"
   xmlns:sodipodi="http://sodipodi.sourceforge.net/DTD/sodipodi-0.dtd"
   xmlns:inkscape="http://www.inkscape.org/namespaces/inkscape"
   id="svg3036"
   version="1.1"
   inkscape:version="0.48.4 r9939"
   width="179.37495"
   height="179"
   sodipodi:docname="Capture du 2014-08-05 16:56:03.png">
  <metadata
     id="metadata3042">
    <rdf:RDF>
      <cc:Work
         rdf:about="">
        <dc:format>image/svg+xml</dc:format>
        <dc:type
           rdf:resource="http://purl.org/dc/dcmitype/StillImage" />
        <dc:title></dc:title>
      </cc:Work>
    </rdf:RDF>
  </metadata>
  <defs
     id="defs3040" />
  <sodipodi:namedview
     pagecolor="#ffffff"
     bordercolor="#666666"
     borderopacity="1"
     objecttolerance="10"
     gridtolerance="10"
     guidetolerance="10"
     inkscape:pageopacity="0"
     inkscape:pageshadow="2"
     inkscape:window-width="1301"
     inkscape:window-height="744"
     id="namedview3038"
     showgrid="false"
     showguides="true"
     inkscape:guide-bbox="true"
     fit-margin-top="0"
     fit-margin-left="0"
     fit-margin-right="0"
     fit-margin-bottom="0"
     inkscape:zoom="2.6586387"
     inkscape:cx="47.201295"
     inkscape:cy="66.872518"
     inkscape:window-x="65"
     inkscape:window-y="24"
     inkscape:window-maximized="1"
     inkscape:current-layer="svg3036">
    <sodipodi:guide
       orientation="0,1"
       position="-218.83022,654.71501"
       id="guide3886" />
  </sodipodi:namedview>
  <path
     d="M 89.3125,0 C 39.86187,0 0,39.86187 0,89.3125 0,138.76314 39.86187,179 89.3125,179 138.76315,179 179.37495,138.76314 179.37495,89.3125 179.37495,39.86187 138.76315,0 89.3125,0 z m 0,11.46875 c 42.91753,0 77.84375,34.92619 77.84375,77.84375 0,42.91756 -34.92622,77.8438 -77.84375,77.8437 -42.91754,0 -77.84375,-34.92614 -77.84375,-77.8437 0,-42.91756 34.92621,-77.84375 77.84375,-77.84375 z m -32.09375,22.25 0,111.21875 95.9688,-55.625 -95.9688,-55.59375 z"
     id="path3"
     inkscape:connector-curvature="0" />
</svg>
