<svg
    xmlns="http://www.w3.org/2000/svg"
    viewBox="0 0 1667 1667"
    id="vector">
    <g id="group">
        <path
            id="path"
            d="M 784 224.5 C 637.9 236.8 504.3 298.6 401.4 401.4 C 306.4 496.5 245.8 619.1 228 752.1 C 221.2 803.1 221.2 862.9 228 913.9 C 245.8 1046.9 306.4 1169.5 401.4 1264.6 C 503.1 1366.2 632.8 1426.9 779 1441.2 C 797.3 1443 868.7 1443 887 1441.2 C 1002 1429.9 1106.6 1390.1 1197 1323.2 C 1319.2 1232.7 1404 1097.7 1432.4 948 C 1440.6 905.1 1442.5 883.3 1442.5 833 C 1442.5 782.7 1440.6 760.9 1432.4 718 C 1402 557.9 1308.2 416.5 1172 325.3 C 1085.7 267.6 985.9 233.1 880.3 224.5 C 857.7 222.7 806 222.7 784 224.5 Z M 877 314 C 985.1 323.4 1084.1 364.1 1167 433.1 C 1208.1 467.2 1245.5 509.8 1273.7 554.5 C 1319.6 627.2 1346.4 708.2 1353 793.9 C 1354.3 811.4 1354.3 855.9 1352.9 873.1 C 1344.3 983.4 1303.6 1082.9 1232 1169.1 C 1218.7 1185.1 1185.1 1218.7 1169.1 1232 C 1082.9 1303.6 983.4 1344.3 873.1 1352.9 C 855.9 1354.3 811.4 1354.3 793.9 1353 C 741.4 1348.9 690.6 1337.3 642.5 1318.4 C 486.3 1256.8 368.6 1122.9 328.1 961 C 310.3 889.8 307.5 818.8 319.6 746 C 346.4 584.6 450.3 443.5 597.2 368.7 C 661.2 336.1 730.7 317.3 803.3 313 C 819.9 312 860.5 312.6 877 314 Z"
            fill="#3a84c2"
            stroke-width="1"/>
        <path
            id="path_1"
            d="M 681 589.6 C 679.6 590.4 677.7 591 676.8 591 C 675.8 591 675 591.4 675 591.8 C 675 592.3 673.2 593.6 671 594.9 C 668.1 596.5 666 598.9 663.3 603.8 C 661.2 607.5 659.3 611.2 659.1 612 C 658.8 612.8 658.4 711.6 658.2 831.5 C 658 1001.7 658.2 1050.7 659.1 1055 C 659.8 1058 660.5 1061 660.6 1061.7 C 661.1 1064.2 666.5 1070.6 672.4 1075.7 C 674.5 1077.5 685.6 1081.1 689.9 1081.3 C 695 1081.7 706.4 1078.6 709.6 1076.1 C 711.1 1075 712.9 1074 713.6 1074 C 714.4 1074 715 1073.6 715 1073.1 C 715 1072.6 716.6 1071.6 718.5 1070.9 C 720.4 1070.2 722 1069.4 722 1069 C 722 1068.7 724.6 1067.1 727.7 1065.5 C 730.9 1063.8 734.1 1061.9 734.8 1061.3 C 735.5 1060.6 737.2 1059.7 738.6 1059.4 C 739.9 1059.1 741 1058.4 741 1058 C 741 1057.6 742.5 1056.7 744.3 1055.9 C 746 1055.2 747.7 1054.3 748 1054 C 748.5 1053.4 751 1051.9 757 1048.8 C 758.4 1048.1 760.1 1047 760.8 1046.3 C 761.5 1045.6 763.2 1044.7 764.6 1044.4 C 765.9 1044.1 767 1043.4 767 1043 C 767 1042.6 768.5 1041.7 770.3 1040.9 C 772 1040.2 773.7 1039.3 774 1039 C 774.5 1038.4 777 1036.9 783 1033.8 C 784.4 1033.1 786.1 1032 786.8 1031.3 C 787.5 1030.6 789.2 1029.7 790.6 1029.4 C 791.9 1029.1 793 1028.4 793 1028 C 793 1027.6 794.5 1026.6 796.3 1025.9 C 798 1025.2 800.1 1024 800.8 1023.3 C 801.5 1022.6 802.8 1022 803.6 1022 C 804.4 1022 805 1021.6 805 1021.1 C 805 1020.6 806.6 1019.6 808.5 1018.9 C 810.4 1018.2 812 1017.3 812 1016.9 C 812 1016.5 813.6 1015.6 815.5 1014.9 C 817.4 1014.2 819 1013.4 819 1013 C 819 1012.7 821.6 1011.1 824.7 1009.5 C 827.9 1007.8 831.1 1005.9 831.8 1005.3 C 832.5 1004.6 834.2 1003.7 835.6 1003.4 C 836.9 1003.1 838 1002.4 838 1002 C 838 1001.6 839.5 1000.7 841.3 999.9 C 843 999.2 844.7 998.3 845 998 C 845.5 997.4 848 995.9 854 992.8 C 855.4 992.1 857.1 991 857.8 990.3 C 858.5 989.6 860.2 988.7 861.6 988.4 C 862.9 988.1 864 987.4 864 987 C 864 986.6 865.5 985.7 867.3 984.9 C 869 984.2 870.7 983.3 871 983 C 871.5 982.4 874 980.9 880 977.8 C 881.4 977.1 883.1 976 883.8 975.3 C 884.5 974.6 886.2 973.7 887.6 973.4 C 888.9 973.1 890 972.5 890 972.1 C 890 971.8 892.6 970.1 895.7 968.5 C 898.9 966.8 902.1 964.9 902.8 964.3 C 903.5 963.6 905.2 962.7 906.6 962.4 C 907.9 962.1 909 961.4 909 961 C 909 960.6 910.5 959.7 912.3 958.9 C 914 958.2 915.7 957.3 916 957 C 916.5 956.4 919 954.9 925 951.8 C 926.4 951.1 928.1 950 928.8 949.3 C 929.5 948.6 931.2 947.7 932.6 947.4 C 933.9 947.1 935 946.4 935 946 C 935 945.6 936.5 944.7 938.3 943.9 C 940 943.2 941.7 942.3 942 942 C 942.5 941.4 945 939.9 951 936.8 C 952.4 936.1 954.1 935 954.8 934.3 C 955.5 933.6 957.2 932.7 958.6 932.4 C 959.9 932.1 961 931.4 961 931 C 961 930.6 962.5 929.7 964.3 928.9 C 966 928.2 967.7 927.3 968 927 C 968.5 926.4 971 924.9 977 921.8 C 978.4 921.1 980.1 920 980.8 919.3 C 981.5 918.6 983.2 917.7 984.6 917.4 C 985.9 917.1 987 916.5 987 916.1 C 987 915.8 989.6 914.1 992.7 912.5 C 995.9 910.8 999.1 908.9 999.8 908.3 C 1000.5 907.6 1002.2 906.7 1003.6 906.4 C 1004.9 906.1 1006 905.4 1006 905 C 1006 904.6 1007.5 903.7 1009.3 902.9 C 1011 902.2 1012.7 901.3 1013 901 C 1013.5 900.4 1016 898.9 1022 895.8 C 1023.4 895.1 1025.1 894 1025.8 893.3 C 1026.5 892.6 1028.2 891.7 1029.6 891.4 C 1030.9 891.1 1032 890.4 1032 890 C 1032 889.6 1033.5 888.7 1035.3 887.9 C 1037 887.2 1038.7 886.3 1039 886 C 1039.5 885.4 1042 883.9 1048 880.8 C 1049.4 880.1 1051.1 879 1051.8 878.3 C 1052.5 877.6 1054.2 876.7 1055.6 876.4 C 1056.9 876.1 1058 875.4 1058 875 C 1058 874.6 1059.5 873.7 1061.3 872.9 C 1063 872.2 1064.7 871.3 1065 871 C 1065.5 870.4 1068 868.9 1074 865.8 C 1075.4 865.1 1077.1 864 1077.8 863.3 C 1078.5 862.6 1079.5 862 1079.9 862 C 1081.1 862 1088 855.3 1088 854.1 C 1088 853.5 1088.4 853 1088.9 853 C 1089.4 853 1090.8 849.8 1092 846 C 1095.2 836.2 1094.5 827.4 1089.9 818.4 C 1088.1 814.8 1085.5 811 1084.1 809.9 C 1082.7 808.9 1081 807.6 1080.4 807.1 C 1079.8 806.6 1078.4 805.9 1077.2 805.6 C 1076 805.2 1075 804.5 1075 804 C 1075 803.6 1073.9 802.9 1072.6 802.6 C 1071.2 802.3 1069.5 801.4 1068.8 800.7 C 1068.1 800.1 1064.9 798.1 1061.7 796.5 C 1058.6 794.8 1056 793.2 1056 792.9 C 1056 792.5 1054.9 791.9 1053.6 791.6 C 1052.2 791.3 1050.5 790.4 1049.8 789.7 C 1049.1 789 1047.4 787.9 1046 787.2 C 1040 784.1 1037.5 782.6 1037 782 C 1036.7 781.7 1035 780.8 1033.3 780.1 C 1031.5 779.3 1030 778.4 1030 778 C 1030 777.6 1028.9 776.9 1027.6 776.6 C 1026.2 776.3 1024.5 775.4 1023.8 774.7 C 1023.1 774 1021.4 772.9 1020 772.2 C 1014 769.1 1011.5 767.6 1011 767 C 1010.7 766.7 1009 765.8 1007.3 765.1 C 1005.5 764.3 1004 763.4 1004 763 C 1004 762.6 1002.9 761.9 1001.6 761.6 C 1000.2 761.3 998.5 760.4 997.8 759.7 C 997.1 759 995.4 757.9 994 757.2 C 988 754.1 985.5 752.6 985 752 C 984.7 751.7 983 750.8 981.3 750.1 C 979.5 749.3 978 748.4 978 748 C 978 747.6 976.9 746.9 975.6 746.6 C 974.2 746.3 972.5 745.4 971.8 744.7 C 971.1 744.1 967.9 742.1 964.7 740.5 C 961.6 738.8 959 737.2 959 736.9 C 959 736.5 957.9 735.9 956.6 735.6 C 955.2 735.3 953.5 734.4 952.8 733.7 C 952.1 733 950.4 731.9 949 731.2 C 943 728.1 940.5 726.6 940 726 C 939.7 725.7 938 724.8 936.3 724.1 C 934.5 723.3 933 722.4 933 722 C 933 721.6 931.9 720.9 930.6 720.6 C 929.2 720.3 927.5 719.4 926.8 718.7 C 926.1 718 924.4 716.9 923 716.2 C 917 713.1 914.5 711.6 914 711 C 913.7 710.7 912 709.8 910.3 709.1 C 908.5 708.3 907 707.4 907 707 C 907 706.6 905.9 705.9 904.6 705.6 C 903.2 705.3 901.5 704.4 900.8 703.7 C 900.1 703 898.4 701.9 897 701.2 C 891 698.1 888.5 696.6 888 696 C 887.7 695.7 886 694.8 884.3 694.1 C 882.5 693.3 881 692.4 881 692 C 881 691.6 879.9 690.9 878.6 690.6 C 877.2 690.3 875.5 689.4 874.8 688.7 C 874.1 688.1 870.9 686.1 867.7 684.5 C 864.6 682.8 862 681.2 862 680.9 C 862 680.5 860.9 679.9 859.6 679.6 C 858.2 679.3 856.5 678.4 855.8 677.7 C 855.1 677 853.4 675.9 852 675.2 C 846 672.1 843.5 670.6 843 670 C 842.7 669.7 841 668.8 839.3 668.1 C 837.5 667.3 836 666.4 836 666 C 836 665.6 834.9 664.9 833.6 664.6 C 832.2 664.3 830.5 663.4 829.8 662.7 C 829.1 662 827.4 660.9 826 660.2 C 820 657.1 817.5 655.6 817 655 C 816.7 654.7 815 653.8 813.3 653.1 C 811.5 652.3 810 651.4 810 651 C 810 650.6 808.9 649.9 807.6 649.6 C 806.2 649.3 804.5 648.4 803.8 647.7 C 803.1 647.1 799.9 645.1 796.7 643.5 C 793.6 641.8 791 640.3 791 640 C 791 639.6 789.4 638.8 787.5 638.1 C 785.6 637.4 784 636.5 784 636.1 C 784 635.7 782.4 634.8 780.5 634.1 C 778.6 633.4 777 632.4 777 631.9 C 777 631.4 776.4 631 775.6 631 C 774.8 631 773.5 630.4 772.8 629.7 C 772.1 629 770 627.8 768.3 627.1 C 766.5 626.4 765 625.4 765 625 C 765 624.6 763.9 623.9 762.6 623.6 C 761.2 623.3 759.5 622.4 758.8 621.7 C 758.1 621 756.4 619.9 755 619.2 C 749 616.1 746.5 614.6 746 614 C 745.7 613.7 744 612.8 742.3 612.1 C 740.5 611.3 739 610.4 739 610 C 739 609.6 737.9 608.9 736.6 608.6 C 735.2 608.3 733.5 607.4 732.8 606.7 C 731 605.1 726.2 602.3 722.8 600.9 C 721.2 600.3 720 599.4 720 599 C 720 598.6 718.9 597.9 717.6 597.6 C 716.2 597.3 714.5 596.4 713.8 595.7 C 713.1 595 709.6 593.1 706 591.5 C 700.7 589 698.1 588.5 691.5 588.4 C 686.4 588.3 682.6 588.8 681 589.6 Z"
            fill="#3a84c2"
            stroke-width="1"/>
    </g>
</svg>
